HIERARCHY
ROOT pelvis
{
  OFFSET 0 100 0
  CHANNELS 6 Xposition Yposition Zposition Zrotation Xrotation Yrotation
  JOINT pelvis_right_femur
  {
    OFFSET -10.78128 -3.44521 -0.5502486
    CHANNELS 3 Zrotation Xrotation Yrotation
    JOINT right_femur_tibia
    {
      OFFSET -0.8047443 -44.0398 -0.1307829
      CHANNELS 3 Zrotation Xrotation Yrotation
      JOINT right_tibia_foot
      {
        OFFSET 3.006224 -47.83518 -5
        CHANNELS 3 Zrotation Xrotation Yrotation
        End Site
        {
          OFFSET 0 -5 15
        }
      }
    }
  }
  JOINT pelvis_left_femur
  {
    OFFSET 10.78128 -3.44521 -0.5502486
    CHANNELS 3 Zrotation Xrotation Yrotation
    JOINT left_femur_tibia
    {
      OFFSET 0.8047443 -44.0398 -0.1307829
      CHANNELS 3 Zrotation Xrotation Yrotation
      JOINT left_tibia_foot
      {
        OFFSET -4.370144 -48.10324 -4.275266
        CHANNELS 3 Zrotation Xrotation Yrotation
        End Site
        {
          OFFSET 0 -5 15
        }
      }
    }
  }
  JOINT pelvis_spine1
  {
    OFFSET 0 6.468898 -3.129235
    CHANNELS 3 Zrotation Xrotation Yrotation
    JOINT spine1
    {
      OFFSET 0 23.15396 4.99043
      CHANNELS 3 Zrotation Xrotation Yrotation
      JOINT spine2
      {
        OFFSET 0 20.79997 -5.064912
        CHANNELS 3 Zrotation Xrotation Yrotation
        JOINT neck
        {
          OFFSET 0 14.38658 9.616178
          CHANNELS 3 Zrotation Xrotation Yrotation
          End Site
          {
            OFFSET 0 20 0
          }
        }
      }
      JOINT right_manubrium
      {
        OFFSET -5.722621 16.35077 3.967754
        CHANNELS 3 Zrotation Xrotation Yrotation
        JOINT right_clavicle
        {
          OFFSET -13.16364 1.694482 -4.693211
          CHANNELS 3 Zrotation Xrotation Yrotation
          JOINT right_humerus
          {
            OFFSET -28.5034 -0.3100689 -2.792744
            CHANNELS 3 Zrotation Xrotation Yrotation
            JOINT right_radius
            {
              OFFSET -25.15693 0.02248979 -1.271978
              CHANNELS 3 Zrotation Xrotation Yrotation
              End Site
              {
                OFFSET -15 0 0
              }
            }
          }
        }
      }
      JOINT left_manubrium
      {
        OFFSET 5.722621 16.35077 3.967754
        CHANNELS 3 Zrotation Xrotation Yrotation
        JOINT left_clavicle
        {
          OFFSET 13.16364 1.694482 -4.693211
          CHANNELS 3 Zrotation Xrotation Yrotation
          JOINT left_humerus
          {
            OFFSET 29.39168 -1.063119 -2.237045
            CHANNELS 3 Zrotation Xrotation Yrotation
            JOINT left_radius
            {
              OFFSET 24.59957 -0.9528479 0.9047498
              CHANNELS 3 Zrotation Xrotation Yrotation
              End Site
              {
                OFFSET 15 -0 -0
              }
            }
          }
        }
      }
    }
  }
}
MOTION
Frames: 21
Frame Time: 0.0416666666667
-719.4998 115.4436 2782.155 -3.615482 -6.500421 -41.47713 -0.4284181 -4.17997 2.981784 -0 48.39309 -0 0.02045031 0.8860216 -5.206747 -5.873076 1.245544 -11.30461 -0 15.88205 -0 -3.057254 -14.37667 17.57057 -0.02704011 -2.77415 6.088819 0.6185153 13.96605 -6.144742 0.9316398 21.51476 5.284158 3.286547 -21.52906 5.817518 0.2098403 -24.69271 12.54131 88.27802 22.44919 -14.75626 -0 0 18.6262 -21.41414 11.83956 10.8346 4.99965 -23.59212 -6.442385 -93.53574 15.11571 26.9732 0 0 -12.04166 11.04011 16.22616 -0.5947483
-722.665 116.1103 2786.644 -3.000617 -5.410076 -40.6924 0.3529328 -9.948879 2.525036 -0 42.67691 -0 -1.292721 -0.003727283 -5.000824 -5.864479 5.253859 -12.10694 -0 14.33939 -0 -2.27712 -15.96413 17.23081 -0.1198796 -2.701427 5.370515 0.9269729 13.72603 -6.688987 0.9453557 21.63358 5.427681 3.313474 -21.57692 5.990382 0.2225562 -23.42282 12.39774 89.47493 22.5998 -16.84972 -0 0 16.31384 -20.58805 11.7285 10.0019 5.352956 -24.25647 -6.552271 -92.12015 15.57912 24.14426 0 0 -14.45249 11.71934 16.2951 -1.427492
-725.8032 116.2538 2790.906 -2.444766 -4.133019 -40.06206 1.339158 -15.30137 1.728486 -0 33.6821 -0 -2.986954 -1.31758 -4.527892 -5.410818 8.349752 -12.31676 -0 12.61439 -0 -1.6491 -17.29701 16.59351 -0.2014614 -2.643218 4.656016 1.234723 13.51926 -7.25056 0.9508991 21.73749 5.573778 3.341783 -21.62398 6.155276 0.2254567 -22.1738 12.26803 90.73422 22.67403 -18.99642 -0 0 13.98948 -19.81515 11.64664 9.175626 5.71019 -24.97359 -6.688755 -90.68258 15.90168 21.28022 0 0 -16.92826 12.45505 16.34976 -2.330369
-729.043 115.845 2795.053 -2.042018 -2.943874 -39.59623 2.284108 -20.13809 0.7299631 -0 23.73984 -0 -4.619188 -2.361542 -4.082543 -4.778765 10.95233 -11.98448 -0 11.51249 -0 -1.400443 -18.34531 15.59594 -0.2595194 -2.618371 3.993925 1.529477 13.38296 -7.814168 0.9394624 21.80412 5.718915 3.373621 -21.68267 6.29737 0.2171475 -21.04363 12.171 91.99822 22.66213 -21.10654 -0 0 11.79428 -19.1595 11.62927 8.401318 6.051008 -25.73916 -6.860741 -89.31288 16.02871 18.58011 0 0 -19.36872 13.23528 16.38731 -3.284978
-732.4999 115.0019 2799.212 -1.857641 -2.089993 -39.26545 3.023702 -24.1448 -0.2742805 -0 15.07298 -0 -5.834289 -2.689578 -3.85766 -4.200185 13.23081 -11.22963 -0 11.88238 -0 -1.659543 -18.99676 14.30368 -0.2900976 -2.62767 3.447978 1.782932 13.32737 -8.32288 0.91362 21.8294 5.847991 3.405284 -21.74503 6.403449 0.1967197 -20.13958 12.11389 93.13223 22.57312 -22.96388 -0 0 9.942615 -18.68065 11.67774 7.753709 6.341064 -26.47275 -7.04983 -88.15136 15.97164 16.31755 0 0 -21.52759 13.97906 16.40391 -4.192999
-736.2491 113.9619 2803.511 -1.931479 -1.758724 -39.02862 3.510154 -26.72062 -1.043762 -0 9.425538 -0 -6.400784 -2.203001 -3.939314 -3.825708 14.95354 -10.20311 -0 14.43377 -0 -2.42635 -19.04648 12.92093 -0.2992414 -2.653645 3.070422 1.9635 13.33007 -8.702592 0.8857229 21.82855 5.941667 3.429445 -21.7903 6.468117 0.1676367 -19.53325 12.08949 93.97747 22.44657 -24.32018 -0 0 8.633255 -18.40228 11.75732 7.303733 6.547064 -27.04999 -7.216315 -87.32598 15.81629 14.72733 0 0 -23.11612 14.56646 16.40164 -4.911502
-740.3007 113.0218 2808.035 -2.249526 -1.984222 -38.86347 3.845039 -27.34481 -1.348101 -0 7.382538 -0 -6.314951 -1.231061 -4.304323 -3.671341 15.68167 -9.089217 -0 19.47553 -0 -3.535862 -18.31973 11.74038 -0.2983649 -2.672913 2.869773 2.056151 13.35286 -8.909556 0.8695372 21.8255 5.98854 3.439913 -21.79843 6.496449 0.1343058 -19.21828 12.08151 94.45245 22.32606 -25.05333 -0 0 7.925172 -18.30035 11.8214 7.074185 6.657956 -27.3841 -7.32617 -86.87233 15.6648 13.86096 0 0 -23.98664 14.91842 16.38804 -5.348323
-744.5945 112.4494 2812.778 -2.736017 -2.607038 -38.78928 4.220275 -25.94616 -1.069629 -0 8.042386 -0 -5.838727 -0.4187854 -4.821106 -3.613561 15.07031 -8.076509 -0 26.78645 -0 -4.71638 -16.79346 11.01866 -0.2933702 -2.674959 2.829976 2.062224 13.37745 -8.941432 0.8706702 21.83278 5.987416 3.434611 -21.76044 6.49415 0.096197 -19.15915 12.08029 94.56339 22.22619 -25.17534 -0 0 7.777553 -18.35033 11.85034 7.053454 6.679697 -27.4625 -7.37216 -86.75944 15.55911 13.65579 0 0 -24.14873 15.02877 16.36824 -5.498832
-749.0117 112.4144 2817.622 -3.288582 -3.373773 -38.86575 4.776771 -22.82845 -0.2305832 -0 9.851514 -0 -5.34546 -0.4238303 -5.300538 -3.493184 12.99657 -7.335919 -0 35.71496 -0 -5.700837 -14.60043 10.91569 -0.2807467 -2.665571 2.950435 1.983564 13.41607 -8.80676 0.8862044 21.84519 5.939648 3.414316 -21.67742 6.458819 0.04863943 -19.36067 12.08967 94.32934 22.13616 -24.71181 -0 0 8.180302 -18.56654 11.85761 7.240268 6.614605 -27.30589 -7.365394 -86.97272 15.47704 14.10206 0 0 -23.63156 14.91982 16.3419 -5.390827
-753.4014 112.9546 2822.381 -3.812581 -4.061333 -39.16436 5.494317 -18.41133 1.008397 -0 11.58459 -0 -5.115641 -1.616298 -5.568439 -3.220368 9.53158 -6.971861 -0 45.09466 -0 -6.305429 -12.00165 11.47826 -0.2547317 -2.653852 3.244696 1.817698 13.4869 -8.506889 0.911633 21.85263 5.845273 3.380289 -21.55357 6.384771 -0.01143696 -19.85381 12.11741 93.75118 22.03938 -23.65562 -0 0 9.166855 -18.97717 11.86089 7.646928 6.458371 -26.927 -7.315159 -87.52856 15.38109 15.24706 0 0 -22.42705 14.60261 16.30622 -5.036798
-757.6338 113.9548 2826.898 -4.23159 -4.525016 -39.72543 6.195328 -13.19615 2.313448 -0 12.4859 -0 -5.239285 -3.887906 -5.510831 -2.781943 4.958453 -6.918476 -0 53.05532 -0 -6.472184 -9.389766 12.57057 -0.2192094 -2.635577 3.690906 1.572682 13.57785 -8.055701 0.9481803 21.86007 5.708388 3.333317 -21.38947 6.278173 -0.08172163 -20.59791 12.158 92.87095 21.92254 -22.06467 -0 0 10.66881 -19.55401 11.84893 8.24838 6.221237 -26.34093 -7.21991 -88.39414 15.26648 17.00011 0 0 -20.60208 14.0919 16.2585 -4.454369
-761.6575 115.1645 2831.146 -4.499987 -4.722071 -40.52629 6.660658 -7.755561 3.25908 -0 12.21007 -0 -5.608272 -6.660047 -5.097065 -2.191734 -0.2338048 -6.920173 -0 57.48079 -0 -6.269439 -7.205854 13.87518 -0.1882763 -2.595537 4.211799 1.278386 13.6471 -7.501596 1.000839 21.88646 5.542808 3.275433 -21.18728 6.160643 -0.155061 -21.44908 12.19189 91.81286 21.78125 -20.13709 -0 0 12.44625 -20.19378 11.78873 8.956121 5.938686 -25.59687 -7.076517 -89.44177 15.16649 19.05362 0 0 -18.38567 13.43699 16.19814 -3.703202
-765.5116 116.2776 2835.244 -4.6134 -4.709193 -41.48459 6.763993 -2.564477 3.557309 -0 10.91889 -0 -6.008674 -9.214018 -4.372078 -1.46142 -5.508159 -6.701136 -0 57.07669 -0 -5.824733 -5.757607 15.06897 -0.1692087 -2.532212 4.738219 0.9693681 13.67583 -6.907215 1.067064 21.9359 5.366567 3.211899 -20.96285 6.048895 -0.2245776 -22.2885 12.20986 90.71034 21.6191 -18.10001 -0 0 14.27044 -20.81143 11.67606 9.681903 5.645491 -24.77462 -6.896928 -90.54204 15.09446 21.13302 0 0 -16.03996 12.7111 16.12701 -2.86887
-769.2749 117.0259 2839.36 -4.592544 -4.574512 -42.4956 6.52638 2.143724 3.211433 -0 9.093906 -0 -6.288488 -11.15342 -3.417655 -0.6129333 -10.49745 -6.169781 -0 51.98892 -0 -5.229662 -5.10153 16.01659 -0.1547264 -2.463635 5.262283 0.6611071 13.68851 -6.309071 1.135526 21.98884 5.19097 3.149019 -20.74085 5.941223 -0.2866158 -23.11763 12.22353 89.61803 21.4389 -16.05692 -0 0 16.09399 -21.40651 11.54495 10.40135 5.350628 -23.93756 -6.70274 -91.66145 15.01249 23.20377 0 0 -13.68322 11.96535 16.04737 -2.00732
-773.0047 117.2347 2843.62 -4.463586 -4.382684 -43.47133 6.06012 6.324945 2.455416 -0 7.258594 -0 -6.419576 -12.50572 -2.333191 0.2896318 -15.03624 -5.448748 -0 43.49318 -0 -4.517184 -5.090027 16.7777 -0.1320307 -2.412834 5.815111 0.3530442 13.72344 -5.715626 1.193161 22.018 5.020611 3.092343 -20.54717 5.826603 -0.3362654 -24.00797 12.25286 88.52413 21.24533 -14.00289 -0 0 17.99472 -22.02023 11.43556 11.13382 5.044867 -23.11484 -6.509641 -92.8404 14.86383 25.38601 0 0 -11.30676 11.21426 15.9619 -1.12877
-776.712 116.849 2848.065 -4.263645 -4.186012 -44.35729 5.479038 9.942869 1.605464 -0 5.963078 -0 -6.421323 -13.44262 -1.25016 1.115891 -18.97875 -4.770058 -0 33.44563 -0 -3.722546 -5.491201 17.46923 -0.09116801 -2.399717 6.41304 0.05087309 13.80918 -5.14461 1.227444 21.99945 4.863613 3.048256 -20.41179 5.698732 -0.363688 -25.00316 12.31449 87.43264 21.05531 -11.96986 -0 0 20.00576 -22.66768 11.37985 11.88037 4.726218 -22.34278 -6.330572 -94.09523 14.60675 27.74294 0 0 -8.94459 10.47723 15.87689 -0.2482142
-780.3804 115.9506 2852.667 -4.058802 -4.056462 -45.12819 4.849462 12.85152 0.9507615 -0 5.850542 -0 -6.279072 -13.99521 -0.3462708 1.677964 -22.04129 -4.360218 -0 23.96682 -0 -2.954104 -6.06682 18.13536 -0.03069759 -2.434529 7.015183 -0.2176679 13.951 -4.651062 1.229245 21.92303 4.737422 3.023667 -20.36302 5.565526 -0.3583431 -26.04241 12.41227 86.42627 20.90345 -10.13718 -0 0 21.97986 -23.29849 11.39635 12.57981 4.420087 -21.69977 -6.184572 -95.33141 14.24709 30.11253 0 0 -6.805107 9.8193 15.80495 0.5615678
-784.0077 114.7491 2857.38 -3.940254 -4.089223 -45.77062 4.179052 14.8576 0.6646188 -0 7.551143 -0 -5.924192 -13.96569 0.1915315 1.80554 -23.86114 -4.331942 -0 16.92879 -0 -2.397643 -6.628851 18.70189 0.03972944 -2.510342 7.531059 -0.4122605 14.12471 -4.307206 1.198903 21.80152 4.660969 3.021956 -20.40936 5.447797 -0.3176908 -26.96759 12.53161 85.6387 20.83192 -8.771358 -0 0 23.62259 -23.81237 11.48089 13.12754 4.172576 -21.27614 -6.091224 -96.36277 13.85923 32.14255 0 0 -5.202824 9.331239 15.76153 1.188949
-787.6303 113.5188 2862.187 -3.976109 -4.355519 -46.26388 3.438003 15.87917 0.7544753 -0 11.39157 -0 -5.282208 -13.1003 0.2568467 1.44707 -24.23401 -4.641804 -0 13.13871 -0 -2.207069 -7.10304 19.05248 0.1049859 -2.606104 7.884481 -0.5092705 14.29067 -4.148312 1.147311 21.66398 4.640237 3.040046 -20.53135 5.365027 -0.2498738 -27.63348 12.64774 85.1539 20.86449 -8.028752 -0 0 24.70311 -24.12737 11.6063 13.45027 4.017155 -21.10381 -6.054534 -97.04685 13.54706 33.54513 0 0 -4.325302 9.06032 15.75481 1.567884
-791.3021 112.5143 2867.097 -4.162001 -4.84932 -46.57485 2.605495 15.96231 1.11428 -0 17.20391 -0 -4.341653 -11.347 -0.1336941 0.6739755 -23.22297 -5.181881 -0 12.13438 -0 -2.38775 -7.539077 19.14384 0.1533216 -2.69959 8.058259 -0.5147323 14.41619 -4.15325 1.088775 21.53757 4.665833 3.070903 -20.6966 5.324323 -0.1663422 -27.99326 12.74088 84.95807 20.99495 -7.867272 -0 0 25.18967 -24.22308 11.73725 13.54685 3.955158 -21.13833 -6.058973 -97.37057 13.37922 34.26533 0 0 -4.125995 8.981169 15.78121 1.719729
-795.0577 111.9199 2872.119 -4.429465 -5.496031 -46.66478 1.696399 15.11859 1.616761 -0 24.48104 -0 -3.161433 -8.870164 -0.8976453 -0.4094816 -20.97936 -5.889831 -0 12.86556 -0 -2.818818 -8.060517 19.01328 0.1791014 -2.776299 8.06945 -0.4468835 14.48421 -4.281894 1.033834 21.43852 4.724532 3.108222 -20.87829 5.324157 -0.07619455 -28.06424 12.80099 84.99943 21.20184 -8.167606 -0 0 25.15623 -24.11686 11.84692 13.45092 3.972352 -21.31618 -6.085678 -97.38563 13.37605 34.37559 0 0 -4.465209 9.044554 15.83232 1.697833
